<svg xmlns="http://www.w3.org/2000/svg" version="1.1" xmlns:xlink="http://www.w3.org/1999/xlink" xmlns:svgjs="http://svgjs.dev/svgjs" width="2000" height="1500" viewBox="0 0 2000 1500"><rect width="2000" height="1500" fill="#000000"></rect><g transform="matrix(0.75,0,0,0.75,249.090909090909,282.7536437246964)"><svg viewBox="0 0 396 247" data-background-color="#000000" preserveAspectRatio="xMidYMid meet" height="1247" width="2000" xmlns="http://www.w3.org/2000/svg" xmlns:xlink="http://www.w3.org/1999/xlink"><g id="tight-bounds" transform="matrix(1,0,0,1,0.2400000000000091,-0.09999999999999432)"><svg viewBox="0 0 395.52 247.2" height="247.2" width="395.52"><g><svg></svg></g><g><svg viewBox="0 0 395.52 247.2" height="247.2" width="395.52"><mask id="0f492479-9aeb-4441-a994-b2cc1c8d9082"><rect width="395.52" height="247.2" fill="white"></rect><g transform="matrix(1,0,0,1,95.06007874015748,37.08)" id="clone"><svg viewBox="0 0 205.39984251968502 173.04" height="173.04" width="205.39984251968502"><g><svg viewBox="0 0 205.39984251968502 173.04" height="173.04" width="205.39984251968502"><g><svg viewBox="0 0 205.39984251968502 173.04" height="173.04" width="205.39984251968502"><g><svg viewBox="0 0 205.39984251968502 173.04" height="173.04" width="205.39984251968502"><g id="SvgjsG3065"><svg viewBox="0 0 205.39984251968502 173.04" height="173.04" width="205.39984251968502" id="SvgjsSvg3064"><g><svg viewBox="0 0 205.39984251968502 173.04" height="173.04" width="205.39984251968502"><g transform="matrix(1,0,0,1,0,0)"><svg width="205.39984251968502" viewBox="-2.4 -48.3 61.3 51.8" height="173.04" data-palette-color="#48937e"><path d="M7.8 0.5Q5.55 0.5 3.95-0.43 2.35-1.35 1.53-2.65 0.7-3.95 0.6-5.1L0.6-5.1Q0.6-6.1 1.15-7.15 1.7-8.2 2.45-8.9 3.2-9.6 3.6-9.6L3.6-9.6Q3.85-9.6 3.85-9.3L3.85-9.3Q4.1-6.55 5.35-4.28 6.6-2 9.85-2L9.85-2Q12.45-2 14-3.6 15.55-5.2 15.55-8.05L15.55-8.05Q15.55-9.75 14.9-11.2 14.25-12.65 12.75-14.45L12.75-14.45 7.85-20.25Q7.05-21.3 6.6-22.43 6.15-23.55 6.15-25.15L6.15-25.15Q6.15-27.75 7.35-30.05 8.55-32.35 10.85-33.77 13.15-35.2 16.2-35.2L16.2-35.2Q18.7-35.2 20.3-34.18 21.9-33.15 21.9-31.25L21.9-31.25Q21.9-29.8 20.7-27.9L20.7-27.9Q20.25-27.15 19.7-27.15L19.7-27.15Q19.3-27.15 19.18-27.53 19.05-27.9 18.95-28.9L18.95-28.9Q18.8-32.9 14.65-32.9L14.65-32.9Q12.15-32.9 10.75-31.63 9.35-30.35 9.35-28.15L9.35-28.15Q9.35-25.95 11.2-23.7L11.2-23.7 16-18.15Q19.1-14.5 19.1-10.5L19.1-10.5Q19.1-7.6 17.48-5.08 15.85-2.55 13.23-1.03 10.6 0.5 7.8 0.5L7.8 0.5ZM30.7 0.05Q30.6 0.05 30.52-0.03 30.45-0.1 30.45-0.25L30.45-0.25Q30.45-0.65 30.87-1.3 31.3-1.95 31.7-2.35L31.7-2.35Q32.55-3.1 32.97-3.63 33.4-4.15 33.75-5.15 34.1-6.15 34.45-8.1L34.45-8.1 38.45-31.35 35.05-31.35Q31.4-31.35 30-30.53 28.6-29.7 28.6-27.6L28.6-27.6Q28.6-26.15 29.07-25.23 29.55-24.3 29.55-24.1L29.55-24.1Q29.55-23.7 29.05-22.85 28.55-22 27.9-21.33 27.25-20.65 26.85-20.65L26.85-20.65Q26.7-20.65 26.55-20.85L26.55-20.85Q26.2-21.45 25.97-22.45 25.75-23.45 25.75-24.55L25.75-24.55Q25.75-27.55 27.25-29.85 28.75-32.15 31.5-33.43 34.25-34.7 37.9-34.7L37.9-34.7 46.5-34.7Q49.1-34.7 50.5-35.08 51.9-35.45 52.42-36.25 52.95-37.05 52.95-38.4L52.95-38.4Q52.95-39.9 52.5-40.8 52.05-41.7 52.05-41.85L52.05-41.85Q52.05-42.2 52.55-43.05 53.05-43.9 53.67-44.6 54.3-45.3 54.7-45.3L54.7-45.3Q54.95-45.3 55-45.15L55-45.15Q55.9-43.7 55.9-41.25L55.9-41.25Q55.9-38.3 54.4-36.05 52.9-33.8 50.12-32.58 47.35-31.35 43.65-31.35L43.65-31.35 42.1-31.35 37.7-5.6Q37.6-4.8 37.35-4.33 37.1-3.85 36.65-3.3L36.65-3.3 36.65-3.2Q37.55-2.85 38.65-2.85L38.65-2.85Q39.3-2.85 39.92-3.1 40.55-3.35 40.75-3.35L40.75-3.35Q41.05-3.35 41.05-3.1L41.05-3.1Q41.05-2.7 40.65-2.25L40.65-2.25Q39.55-1 38.77-0.48 38 0.05 37.35 0.05L37.35 0.05Q36.8 0.05 35.5-0.35L35.5-0.35Q34.1-0.75 33.55-0.75L33.55-0.75Q32.85-0.75 31.65-0.25L31.65-0.25Q30.85 0.05 30.7 0.05L30.7 0.05Z" opacity="1" transform="matrix(1,0,0,1,0,0)" fill="black" class="wordmark-text-0" id="SvgjsPath3063" stroke-width="5" stroke="black" stroke-linejoin="round"></path></svg></g></svg></g></svg></g></svg></g></svg></g></svg></g></svg></g></mask><g mask="url(#0f492479-9aeb-4441-a994-b2cc1c8d9082)"><g><path d="M173.871 247.2c-10.387 0-19.273-2.147-26.659-6.44-7.386-4.247-12.972-9.371-16.757-15.372-3.831-6.001-5.978-11.656-6.44-16.964v0c0-4.616 1.269-9.348 3.809-14.195 2.539-4.847 5.54-8.886 9.002-12.118 3.462-3.231 6.117-4.847 7.963-4.847v0c1.154 0 1.731 0.692 1.731 2.077v0c1.154 12.695 4.616 24.281 10.386 34.761 5.77 10.525 16.157 15.788 31.16 15.787v0c12.002 0 21.581-3.693 28.736-11.079 7.155-7.386 10.733-17.657 10.733-30.813v0c0-7.848-1.5-15.118-4.501-21.812-3.001-6.694-7.963-14.195-14.887-22.504v0l-33.93-40.162c-3.693-4.847-6.578-9.879-8.655-15.095-2.077-5.17-3.116-11.448-3.116-18.834v0c0-12.002 2.77-23.312 8.309-33.929 5.54-10.617 13.618-19.204 24.235-25.759 10.617-6.601 22.966-9.902 37.046-9.902v0c11.541 0 21.004 2.354 28.39 7.063 7.386 4.755 11.079 11.518 11.079 20.288v0c0 6.694-2.77 14.426-8.31 23.197v0c-2.077 3.462-4.385 5.193-6.924 5.193v0c-1.847 0-3.047-0.877-3.601-2.631-0.6-1.708-1.131-4.87-1.592-9.486v0c-0.692-18.465-10.617-27.697-29.775-27.698v0c-11.541 0-20.542 2.931-27.005 8.794-6.463 5.909-9.694 13.941-9.694 24.097v0c0 10.156 4.27 20.427 12.81 30.813v0l33.237 38.431c14.31 16.849 21.466 34.506 21.465 52.971v0c0 13.387-3.739 25.897-11.217 37.53-7.524 11.679-17.334 21.027-29.429 28.044-12.141 7.063-24.674 10.594-37.599 10.594z" fill="#48937e" fill-rule="nonzero" stroke="none" stroke-width="1" stroke-linecap="butt" stroke-linejoin="miter" stroke-miterlimit="10" stroke-dasharray="" stroke-dashoffset="0" font-family="none" font-weight="none" font-size="none" text-anchor="none" style="mix-blend-mode: normal" data-fill-palette-color="tertiary"></path></g></g><g transform="matrix(1,0,0,1,95.06007874015748,37.08)"><svg viewBox="0 0 205.39984251968502 173.04" height="173.04" width="205.39984251968502"><g><svg viewBox="0 0 205.39984251968502 173.04" height="173.04" width="205.39984251968502"><g><svg viewBox="0 0 205.39984251968502 173.04" height="173.04" width="205.39984251968502"><g><svg viewBox="0 0 205.39984251968502 173.04" height="173.04" width="205.39984251968502"><g id="textblocktransform"><svg viewBox="0 0 205.39984251968502 173.04" height="173.04" width="205.39984251968502" id="textblock"><g><svg viewBox="0 0 205.39984251968502 173.04" height="173.04" width="205.39984251968502"><g transform="matrix(1,0,0,1,0,0)"><svg width="205.39984251968502" viewBox="-2.4 -48.3 61.3 51.8" height="173.04" data-palette-color="#48937e"><path d="M7.8 0.5Q5.55 0.5 3.95-0.43 2.35-1.35 1.53-2.65 0.7-3.95 0.6-5.1L0.6-5.1Q0.6-6.1 1.15-7.15 1.7-8.2 2.45-8.9 3.2-9.6 3.6-9.6L3.6-9.6Q3.85-9.6 3.85-9.3L3.85-9.3Q4.1-6.55 5.35-4.28 6.6-2 9.85-2L9.85-2Q12.45-2 14-3.6 15.55-5.2 15.55-8.05L15.55-8.05Q15.55-9.75 14.9-11.2 14.25-12.65 12.75-14.45L12.75-14.45 7.85-20.25Q7.05-21.3 6.6-22.43 6.15-23.55 6.15-25.15L6.15-25.15Q6.15-27.75 7.35-30.05 8.55-32.35 10.85-33.77 13.15-35.2 16.2-35.2L16.2-35.2Q18.7-35.2 20.3-34.18 21.9-33.15 21.9-31.25L21.9-31.25Q21.9-29.8 20.7-27.9L20.7-27.9Q20.25-27.15 19.7-27.15L19.7-27.15Q19.3-27.15 19.18-27.53 19.05-27.9 18.95-28.9L18.95-28.9Q18.8-32.9 14.65-32.9L14.65-32.9Q12.15-32.9 10.75-31.63 9.35-30.35 9.35-28.15L9.35-28.15Q9.35-25.95 11.2-23.7L11.2-23.7 16-18.15Q19.1-14.5 19.1-10.5L19.1-10.5Q19.1-7.6 17.48-5.08 15.85-2.55 13.23-1.03 10.6 0.5 7.8 0.5L7.8 0.5ZM30.7 0.05Q30.6 0.05 30.52-0.03 30.45-0.1 30.45-0.25L30.45-0.25Q30.45-0.65 30.87-1.3 31.3-1.95 31.7-2.35L31.7-2.35Q32.55-3.1 32.97-3.63 33.4-4.15 33.75-5.15 34.1-6.15 34.45-8.1L34.45-8.1 38.45-31.35 35.05-31.35Q31.4-31.35 30-30.53 28.6-29.7 28.6-27.6L28.6-27.6Q28.6-26.15 29.07-25.23 29.55-24.3 29.55-24.1L29.55-24.1Q29.55-23.7 29.05-22.85 28.55-22 27.9-21.33 27.25-20.65 26.85-20.65L26.85-20.65Q26.7-20.65 26.55-20.85L26.55-20.85Q26.2-21.45 25.97-22.45 25.75-23.45 25.75-24.55L25.75-24.55Q25.75-27.55 27.25-29.85 28.75-32.15 31.5-33.43 34.25-34.7 37.9-34.7L37.9-34.7 46.5-34.7Q49.1-34.7 50.5-35.08 51.9-35.45 52.42-36.25 52.95-37.05 52.95-38.4L52.95-38.4Q52.95-39.9 52.5-40.8 52.05-41.7 52.05-41.85L52.05-41.85Q52.05-42.2 52.55-43.05 53.05-43.9 53.67-44.6 54.3-45.3 54.7-45.3L54.7-45.3Q54.95-45.3 55-45.15L55-45.15Q55.9-43.7 55.9-41.25L55.9-41.25Q55.9-38.3 54.4-36.05 52.9-33.8 50.12-32.58 47.35-31.35 43.65-31.35L43.65-31.35 42.1-31.35 37.7-5.6Q37.6-4.8 37.35-4.33 37.1-3.85 36.65-3.3L36.65-3.3 36.65-3.2Q37.55-2.85 38.65-2.85L38.65-2.85Q39.3-2.85 39.92-3.1 40.55-3.35 40.75-3.35L40.75-3.35Q41.05-3.35 41.05-3.1L41.05-3.1Q41.05-2.7 40.65-2.25L40.65-2.25Q39.55-1 38.77-0.48 38 0.05 37.35 0.05L37.35 0.05Q36.8 0.05 35.5-0.35L35.5-0.35Q34.1-0.75 33.55-0.75L33.55-0.75Q32.85-0.75 31.65-0.25L31.65-0.25Q30.85 0.05 30.7 0.05L30.7 0.05Z" opacity="1" transform="matrix(1,0,0,1,0,0)" fill="#48937e" class="wordmark-text-0" data-fill-palette-color="primary" id="text-0"></path></svg></g></svg></g></svg></g></svg></g></svg></g></svg></g></svg></g></svg></g><defs></defs></svg><rect width="395.52" height="247.2" fill="none" stroke="none" visibility="hidden"></rect></g></svg></g></svg>